<?xml version="1.0" encoding="iso-8859-1"?>
<!-- Uploaded to: SVG Repo, www.svgrepo.com, Generator: SVG Repo Mixer Tools -->
<svg fill="#000000" height="800px" width="800px" version="1.1" id="Layer_1" xmlns="http://www.w3.org/2000/svg" xmlns:xlink="http://www.w3.org/1999/xlink" 
	 viewBox="0 0 512 512" xml:space="preserve">
<g>
	<g>
		<path d="M128,132.267h-25.6V89.6c0-4.71-3.823-8.533-8.533-8.533c-4.71,0-8.533,3.823-8.533,8.533v51.2
			c0,4.71,3.823,8.533,8.533,8.533H128c4.71,0,8.533-3.823,8.533-8.533S132.71,132.267,128,132.267z"/>
	</g>
</g>
<g>
	<g>
		<path d="M401.067,362.667c-28.237,0-51.2,22.963-51.2,51.2c0,28.237,22.963,51.2,51.2,51.2c28.237,0,51.2-22.963,51.2-51.2
			C452.267,385.63,429.303,362.667,401.067,362.667z M401.067,448c-18.825,0-34.133-15.309-34.133-34.133
			c0-18.825,15.309-34.133,34.133-34.133c18.825,0,34.133,15.309,34.133,34.133C435.2,432.691,419.891,448,401.067,448z"/>
	</g>
</g>
<g>
	<g>
		<path d="M110.933,362.667c-28.237,0-51.2,22.963-51.2,51.2c0,28.237,22.963,51.2,51.2,51.2s51.2-22.963,51.2-51.2
			C162.133,385.63,139.17,362.667,110.933,362.667z M110.933,448C92.109,448,76.8,432.691,76.8,413.867
			c0-18.825,15.309-34.133,34.133-34.133s34.133,15.309,34.133,34.133C145.067,432.691,129.758,448,110.933,448z"/>
	</g>
</g>
<g>
	<g>
		<path d="M510.925,290.253l-42.667-76.8c-1.502-2.705-4.361-4.386-7.458-4.386H358.4c-4.71,0-8.533,3.823-8.533,8.533v128H332.8
			c0-64.435,0-179.2,0-179.2c0-18.825-15.309-34.133-34.133-34.133H187.298c-4.326-47.77-44.553-85.333-93.431-85.333
			C42.112,46.933,0,89.045,0,140.8c0,13.875,3.106,27.017,8.533,38.878v157.389C3.823,337.067,0,340.89,0,345.6v42.667
			c0,2.27,0.896,4.437,2.5,6.042c2.517,2.5,2.526,2.492,36.028,2.466c3.61,0,6.827-2.287,8.03-5.692
			c9.626-27.204,35.499-45.483,64.375-45.483c28.894,0,54.758,18.287,64.384,45.508c1.203,3.413,4.429,5.692,8.047,5.692h140.902
			c4.71,0,8.533-3.823,8.533-8.533c0-0.009,0-0.026,0-0.043c0-0.529,0-10.394,0-25.557h19.994c1.954,0,3.849-0.674,5.367-1.903
			c12.262-9.924,27.093-15.164,42.906-15.164c28.894,0,54.758,18.287,64.384,45.508c1.203,3.413,4.429,5.692,8.047,5.692h29.969
			c4.71,0,8.533-3.823,8.533-8.533V294.4C512,292.949,511.633,291.524,510.925,290.253z M93.867,64c42.342,0,76.8,34.458,76.8,76.8
			s-34.458,76.8-76.8,76.8c-42.342,0-76.8-34.458-76.8-76.8S51.524,64,93.867,64z M189.167,379.742v-0.009
			c-13.474-30.865-44.177-51.2-78.234-51.2c-34.048,0-64.742,20.326-78.225,51.183c-4.437,0-10.641,0.008-15.642,0.017v-25.6
			c4.71,0,8.533-3.823,8.533-8.533V320h8.533c4.71,0,8.533-3.823,8.533-8.533s-3.823-8.533-8.533-8.533H25.6v-97.911
			c17.135,18.202,41.361,29.645,68.267,29.645c48.879,0,89.105-37.564,93.431-85.333h111.369c9.412,0,17.067,7.654,17.067,17.067
			v187.204c0,11.503,0,19.942,0.162,26.138H189.167z M401.067,226.133h54.716l33.178,59.733h-87.893V226.133z M494.933,320H486.4
			c-4.71,0-8.533,3.823-8.533,8.533s3.823,8.533,8.533,8.533h8.533v42.667H479.3c-13.474-30.865-44.177-51.2-78.234-51.2
			c-11.793,0-23.433,2.475-34.133,7.134V226.133H384V294.4c0,4.71,3.823,8.533,8.533,8.533h102.4V320z"/>
	</g>
</g>
</svg>